<svg xmlns="http://www.w3.org/2000/svg" viewBox="0 0 980 409">
  <path fill="#000" d="M1 45v44h19V54h71V37H20V18h82V1H1v44zM231 45v44h102V73h-83V54h71V37h-71V18h83.1l-.3-8.3-.3-8.2-50.7-.3L231 1v44zM345 45v44h101V73h-82V54h71V37h-71V18h82V1H345v44zM493 7v6h44v76h13V13h44V1H493v6zM735.4 1.9c-5 .8-8.7 3.2-11.1 6.8-1.6 2.5-1.8 6.4-2.1 41.5l-.3 38.8H735V51h75v38h13V52.1c0-37.4-.3-41.4-3.9-45.5-4.4-5-5.2-5.1-43.6-5.3-19.8 0-37.9.2-40.1.6zm69.4 12.2c4 1.4 5.2 5 5.2 16V39h-74V28.7c0-11.1 1.1-14.2 5.3-15 5.1-1 60.5-.7 63.5.4zM841 45v44h14l-.2-43.8-.3-43.7-6.7-.3-6.8-.3V45zM885.4 1.9c-5.3.9-8.9 3.3-11.1 7.4-1.6 2.9-1.8 7.1-2.1 41.4l-.3 38.3H886V53.6c0-33.3.1-35.5 1.9-37.7l1.9-2.4 31.3-.3c34.2-.3 36.1-.1 37.8 5 .7 2 1.1 15.6 1.1 36.9V89h13.1l-.3-38.9c-.3-37.8-.4-39-2.4-41.8-1.2-1.5-3.6-3.7-5.5-4.8-3.2-1.9-5.4-2-39.4-2.2-19.8 0-37.9.2-40.1.6zM112 45.5V89h19V54h31.8c29.6 0 32 .1 33.5 1.8 1.4 1.6 1.7 4.3 1.7 17.5V89h19V74.7c0-19.5-1.8-24.9-9.5-28.3-2.5-1.1-2.7-1.3-.8-1.4 4 0 8.1-4.6 9.4-10.4 1.7-7.6.8-21.4-1.7-25.7-4-7-3.5-6.9-55.6-6.9H112v43.5zm84.4-25.9c1.1 1.1 1.6 3.5 1.6 7.9 0 10 2 9.5-35.1 9.5H131V18h31.9c27.7 0 32.2.2 33.5 1.6zM605 46v44h14V52h69.9l2 2.6c1.9 2.4 2.1 4 2.1 18.5V89h14.3l-.5-16.3c-.5-19.3-1.7-22.8-8.2-25.8-2.7-1.2-3.4-1.9-2.1-1.9 2.9 0 6.2-2.6 8.1-6.2 1.3-2.4 1.6-5.9 1.5-14.7-.1-13.3-1.5-17.3-7.1-20.3-3.2-1.7-6.7-1.8-48.7-1.8H605v44zm86.1-30.1c3.4 4.2 2.4 19.7-1.5 22.3-.6.4-16.7.8-35.8.8H619V12.9l35.1.3 35.1.3 1.9 2.4zM0 146.9c0 .5 2.1 1.6 4.8 2.5 6.1 2 470.9 148.8 478.3 151.1l5.5 1.8L733.1 225c134.4-42.5 244.8-77.6 245.3-78.1.6-.5-209.6-.9-488.7-.9-297.3 0-489.7.4-489.7.9z"/>
  <path fill="#000" d="M92 280.7c0 1 394.6 125.8 396.9 125.6 2.7-.2 394.5-124.4 395.5-125.4.6-.5-31.5-.9-81.5-.9h-82.4L605 316.5C541.5 336.6 489 353 488.5 353c-.6 0-53-16.4-116.5-36.5L256.5 280h-82.2c-45.3 0-82.3.3-82.3.7z"/>
</svg>
