<svg xmlns="http://www.w3.org/2000/svg" viewBox="0 0 319 82">
  <path fill="#444" fill-rule="nonzero" d="M204.59958 20.6919v60.09454h-11.156062v-3.39861c-3.296857 1.919845-6.885383 3.281265-10.621823 4.029723-2.031018.387558-4.093752.582274-6.161023.582274a30.034943 30.034943 0 01-6.717607-.7375c-5.068167-1.172356-9.234424-3.707017-12.047815-7.328253-6.229957-8.257807-5.430688-19.874352 1.870854-27.190926 4.858941-4.752744 12.082349-6.874833 20.890194-6.127302 4.657839.392147 8.966289 1.558377 12.797376 2.975826V35.47504c-.001121-1.969828-1.589615-3.56609-3.548733-3.56609h-29.801636V20.6919h44.496275zm114.40042 0v60.09454h-11.158093v-3.39861c-3.296405 1.919267-6.884165 3.280657-10.619792 4.029723-2.035032.388227-4.101873.583117-6.17321.582274a30.034936 30.034936 0 01-6.717607-.7375c-5.068168-1.172356-9.234425-3.707017-12.047816-7.328253-6.232685-8.256988-5.433277-19.87554 1.870854-27.190926 4.858941-4.752744 12.082349-6.87279 20.888163-6.127302 4.65987.392147 8.966289 1.558377 12.797376 2.975826V35.47504c0-.945786-.373669-1.852835-1.038805-2.521607-.665135-.668771-1.567253-1.044483-2.507896-1.044483h-29.801637V20.6919H319zM104.832858.408487v20.399832c.000356.83701.433324 1.613684 1.143246 2.0508.709923.437116 1.594767.47185 2.336421.091714 3.927211-1.996785 8.266589-3.036485 12.667372-3.035058 16.191728 0 29.366932 13.906935 29.366932 31.000066 0 17.093132-13.175204 31.000066-29.366932 31.000066-5.776339-.00526-11.412104-1.791703-16.147039-5.11834v3.995001H93.676796V.408487h11.156062zm132.73317 19.374275c14.003986-.06306 25.460685 11.672766 25.464748 25.753308v35.35862h-11.172313V45.448245c0-7.84499-6.230088-14.354227-14.032425-14.429797-3.783636-.037045-7.425214 1.447187-10.115231 4.122761-2.690017 2.675573-4.20555 6.320762-4.209705 10.12526v35.62822h-11.156063V20.794023h11.156063v1.482807c-.00055.370639.195196.71354.513773.900006.318576.186466.711793.188292 1.032068.004793 3.806522-2.212003 8.122577-3.383701 12.519085-3.398866zM11.158094.408487v31.016405c-.00054.945952.372956 1.853316 1.038209 2.522205.665252.66889 1.567683 1.044427 2.508492 1.043885h37.595848c1.95879 0 3.546702-1.596593 3.546702-3.56609V.408487h11.158093v80.384081H55.847345V49.776163c0-1.969497-1.587913-3.56609-3.546702-3.56609H14.704795c-1.95879 0-3.546702 1.596593-3.546702 3.56609v31.016405H0V.408487h11.158093zm74.767148 20.326305v60.055734H74.76918V20.734792h11.156062zm93.810863 31.073593c-3.829056-.322705-9.035354-.07557-12.157507 2.988081-3.189188 3.124924-3.583266 8.723236-.861284 12.228053 2.03133 2.624528 7.158406 4.683302 14.016174 3.36389 4.698466-.902756 9.663035-3.737655 12.728312-7.14852V55.7319c-5.230674-2.361054-9.459902-3.562005-13.725695-3.923516zm114.390264 0c-3.829056-.322705-9.035354-.07557-12.157508 2.988081-3.189187 3.124924-3.585296 8.723236-.861283 12.228053 2.031329 2.624528 7.158405 4.683302 14.016174 3.36389 4.696434-.902756 9.663035-3.737655 12.72628-7.14852V55.7319c-5.228643-2.361054-9.457871-3.562005-13.723663-3.923516zM120.979897 31.149163c-7.006056 0-13.100045 4.332003-16.147039 10.66355v18.2083c3.036838 6.329503 9.134889 10.661506 16.147039 10.661506 10.032737 0 18.194619-8.866207 18.194619-19.766678 0-10.90047-8.161882-19.766678-18.194619-19.766678zM80.380727 0c3.472757 0 6.287982 2.815225 6.287982 6.28798v.06875c0 3.472755-2.815225 6.28798-6.287981 6.28798-3.472756 0-6.28798-2.815225-6.28798-6.28798v-.06875C74.092747 2.815226 76.907971 0 80.380727 0z"/>
</svg>
