<svg xmlns="http://www.w3.org/2000/svg" viewBox="0 0 15 15">
  <path fill-rule="nonzero" d="M7.5 0C5.4375 0 5.1875 0 4.4375.0625c-.8125 0-1.375.125-1.875.3125-.4375.1875-.875.4375-1.3125.875s-.6875.8125-.875 1.3125S.0625 3.625.0625 4.4375C0 5.1875 0 5.4375 0 7.5s0 2.3125.0625 3.0625c.0625.8125.1875 1.3125.375 1.8125.125.5.375.9375.8125 1.375s.8125.6875 1.3125.875 1 .3125 1.8125.375H7.5c2.0625 0 2.3125 0 3.0625-.0625.8125-.0625 1.3125-.1875 1.8125-.375s.9375-.4375 1.3125-.875c.4375-.4375.6875-.8125.875-1.3125s.3125-1 .375-1.8125C15 9.8125 15 9.5625 15 7.5s0-2.3125-.0625-3.0625c-.0625-.8125-.1875-1.3125-.375-1.8125-.125-.5-.375-.9375-.8125-1.375s-.8125-.6875-1.3125-.875-1-.3125-1.8125-.375H7.5zm0 1.375c2 0 2.25 0 3.0625.0625.75.0625 1.125.125 1.375.25.375.125.625.3125.875.5625s.4375.5.5625.875c.125.25.25.6875.25 1.375.0625.8125.0625 1 .0625 3s0 2.25-.0625 3-.1875 1.125-.25 1.375c-.125.375-.3125.625-.5625.875s-.5.4375-.875.5625c-.25.125-.6875.25-1.375.25-.8125.0625-1 .0625-3.0625.0625-2 0-2.25 0-3.0625-.0625-.75-.0625-1.125-.1875-1.375-.25-.375-.125-.625-.3125-.875-.5625s-.4375-.5-.5625-.875c-.125-.25-.25-.6875-.25-1.375 0-.8125-.0625-1-.0625-3s0-2.25.0625-3.0625c0-.6875.125-1.125.25-1.375.125-.375.3125-.625.5625-.875s.5-.4375.875-.5625c.25-.125.6875-.25 1.375-.25.8125-.0625 1-.0625 3.0625 0 0-.0625 0 0 0 0zm0 2.25c-2.125 0-3.875 1.75-3.875 3.875s1.75 3.875 3.875 3.875 3.875-1.75 3.875-3.875S9.625 3.625 7.5 3.625zM7.5 10C6.125 10 5 8.875 5 7.5S6.125 5 7.5 5 10 6.125 10 7.5 8.875 10 7.5 10zm4.875-6.5c0 .5-.375.875-.875.875S10.625 4 10.625 3.5s.375-.875.875-.875.875.375.875.875z"/>
</svg>
