<svg xmlns="http://www.w3.org/2000/svg" viewBox="0 0 22 23">
  <path fill-rule="nonzero" d="M6 4.5v1H1.5v13c0 1.59768 1.24892 2.90366 2.823727 2.994907L4.5 21.5h13c1.59768 0 2.90366-1.24892 2.994907-2.823727L20.5 18.5v-13H16v-1h5.5v14c0 2.142195-1.683968 3.891079-3.80036 3.995105L17.5 22.5h-13c-2.142195 0-3.891079-1.683968-3.995105-3.80036L.5 18.5v-14H6zm5-4c2.688483 0 4.01745 1.492045 4.385876 3.980411.083363.56304.112656 1.043007.119135 1.776899l.000928.741075h-1l.000442-.476119-.004904-.51285c-.01052-.548427-.039526-.941563-.104817-1.382542C14.094187 2.583962 13.1287 1.5 11 1.5c-2.12822 0-3.091259 1.083108-3.391385 3.126308l-.042923.332634c-.04247.385098-.059538.77384-.063996 1.313784l-.000625.72566h-1l-.000541-.494731.005155-.538143c.011193-.577642.04241-1.000253.113547-1.484535C6.98485 1.991921 8.311382.5 11 .5zm3 4v1H8v-1h6z"/>
</svg>
