<svg xmlns="http://www.w3.org/2000/svg" viewBox="0 0 16 13">
  <path fill-rule="nonzero" d="M16 1.69c-.6.26-1.2.455-1.8666667.52C14.8 1.82 15.3333333 1.17 15.6.455c-.6666667.39-1.3333333.65-2.0666667.78-.6-.65-1.4666666-1.04-2.4-1.04-1.8 0-3.2666666 1.43-3.2666666 3.185 0 .26 0 .52.0666666.715-2.8-.13-5.2-1.43-6.8666666-3.315-.2666667.455-.4.975-.4 1.56 0 1.105.6 2.08 1.4666666 2.665-.5333333 0-1.0666666-.13-1.4666666-.39v.065c0 1.56 1.1333333 2.86 2.6 3.12C3 7.865 2.7333333 7.93 2.4 7.93c-.2 0-.4 0-.6-.065.4 1.3 1.6 2.21 3.0666667 2.21C3.7333333 10.92 2.3333333 11.44.8 11.44c-.2666667 0-.5333333 0-.8-.065 1.4666667.91 3.2 1.43 5.0666667 1.43C11.1333333 12.805 14.4 7.93 14.4 3.705v-.39C15 2.86 15.5333333 2.34 16 1.69z"/>
</svg>
