<svg xmlns="http://www.w3.org/2000/svg" viewBox="0 0 24 22">
  <path fill-rule="nonzero" d="M21.566739 2.424603c2.526922 2.526922 2.526922 6.623872 0 9.150794L12 21.142136l-9.566739-9.56674c-2.526922-2.526921-2.526922-6.62387 0-9.150793 2.526922-2.526922 6.623872-2.526922 9.150794 0L12 2.839641l.415945-.415038c2.526922-2.526922 6.623872-2.526922 9.150794 0zm-.756526.657688c-2.11561-2.11561-5.516479-2.162623-7.68979-.140462l-.146248.14108L12 4.05496l-.974794-.972668c-2.163691-2.163692-5.671727-2.163692-7.835418 0-2.11561 2.115608-2.162623 5.516478-.141862 7.68839l.140984.14615.702744.700574L12 19.727922l8.810213-8.810213c2.115609-2.115609 2.162622-5.516478.14104-7.68921l-.14104-.146208z"/>
</svg>
