<svg xmlns="http://www.w3.org/2000/svg" viewBox="0 0 20 24">
  <path fill-rule="nonzero" d="M10 11.041667c5.522848 0 10 4.719665 10 10.541666V23.5H0v-1.916667c0-5.729589 4.336149-10.391558 9.737811-10.538113L10 11.041667zM10 12c-4.935673 0-8.952665 4.146393-9.087417 9.315091l-.003492.268242v.958334h18.181818v-.958334c0-5.203021-3.933337-9.4376-8.83645-9.579651L10 12zM10 .5c2.510385 0 4.545455 2.014719 4.545455 4.5 0 2.41988-1.92937 4.393636-4.348283 4.495842L10 9.5C7.489615 9.5 5.454546 7.485281 5.454546 5c0-2.41988 1.92937-4.393636 4.348282-4.495842L10 .5zm0 1C7.991692 1.5 6.363636 3.067003 6.363636 5S7.991692 8.5 10 8.5s3.636364-1.567003 3.636364-3.5S12.008308 1.5 10 1.5z"/>
</svg>
