<svg width="201" height="33" xmlns="http://www.w3.org/2000/svg"><g fill="#FFF" fill-rule="nonzero"><path d="M108.3 19.35l5.79 13.26H85.6l5.81-13.26L99.86 0zM59.23 19.35a9 9 0 007.41-9.39v-.1a9.76 9.76 0 00-2.17-6.39 10.19 10.19 0 00-8-3.24H42.08v32.38h25.56l-8.61-13.2.2-.06zM19.81 15.86l.18-.11a7.78 7.78 0 004.25-7.39v-.08a7.81 7.81 0 00-1.78-5.19A9.53 9.53 0 0015.14.22H0v32.39h15.65c6.12 0 10.16-3.28 10.16-8.84v-.09c0-4.44-2.68-6.66-6-7.82zM192.79 23.09v-2.65h5.03V12.4h-5.03V9.75h7.34V.23H174.5v32.39h25.63v-9.53zM132.08 13.53l8.45 19.36 8.43-19.36 5.81-13.3h-28.5z"/></g></svg>